<svg width="150" height="125" xmlns="http://www.w3.org/2000/svg"><g fill="none" fill-rule="evenodd"><rect stroke="#FFF" stroke-width="2" fill="#000" x="1" y="1" width="98" height="123" rx="10"/><rect stroke="#000" stroke-width="2" fill="#FFF" x="26" y="1" width="98" height="123" rx="10"/><rect stroke="#000" stroke-width="2" fill="#FFF" x="51" y="1" width="98" height="123" rx="10"/><path d="M106.76 75.74v-3.42c.24-1.8.825-3.3 1.755-4.5.93-1.2 1.995-2.265 3.195-3.195a84.51 84.51 0 013.825-2.79c1.35-.93 2.58-2.055 3.69-3.375 1.11-1.32 2.04-2.91 2.79-4.77.75-1.86 1.125-4.23 1.125-7.11 0-1.74-.375-3.615-1.125-5.625s-1.995-3.885-3.735-5.625c-1.74-1.74-4.035-3.195-6.885-4.365-2.85-1.17-6.405-1.755-10.665-1.755-3.3 0-6.285.555-8.955 1.665-2.67 1.11-4.95 2.655-6.84 4.635-1.89 1.98-3.36 4.32-4.41 7.02-1.05 2.7-1.605 5.67-1.665 8.91h13.23c0-1.62.18-3.135.54-4.545.36-1.41.915-2.64 1.665-3.69a8.347 8.347 0 012.88-2.52c1.17-.63 2.565-.945 4.185-.945 2.4 0 4.275.66 5.625 1.98 1.35 1.32 2.025 3.36 2.025 6.12.06 1.62-.225 2.97-.855 4.05-.63 1.08-1.455 2.07-2.475 2.97-1.02.9-2.13 1.8-3.33 2.7-1.2.9-2.34 1.965-3.42 3.195-1.08 1.23-2.025 2.715-2.835 4.455-.81 1.74-1.305 3.9-1.485 6.48v4.05h12.15zm.72 19.26V81.14H93.35V95h14.13z" fill="#000" fill-rule="nonzero"/></g></svg>